<svg viewBox="0 0 32 32" xmlns="http://www.w3.org/2000/svg"><path d="M31.866 29.046c.05-.336 1.109-8.41-3.639-13.966-2.917-3.414-7.418-5.283-13.23-5.468l-.031-5.613a1.001 1.001 0 00-1.632-.775L.367 13.866c-.232.19-.367.474-.368.774-.001.3.133.584.365.774l12.968 10.743a.998.998 0 001.634-.772l.031-5.739c14.009-.01 15.005 8.966 15.039 9.337.043.504.362.897.868.913l.034.001c.495 0 .854-.361.928-.851zM13.261 17.922a1 1 0 00-.294.708v4.638L2.578 14.646l10.389-8.542v4.493a1 1 0 001 1c5.69 0 10.037 1.648 12.735 4.776 2.029 2.354 2.962 5.235 3.281 7.626-2.184-2.984-6.008-6.363-16.015-6.369h-.002a.998.998 0 00-.705.292z" fill="#430692e6"/></svg>