<svg viewBox="0 0 32 32" xmlns="http://www.w3.org/2000/svg"><path d="M31.7 15.219L16.756.275a1.019 1.019 0 00-.731-.299c-.008 0-.014-.004-.022-.004h-15a1 1 0 00-1 1c0 .008.004.014.004.022-.001.264.098.529.299.731l14.246 14.246L.276 30.247a1.027 1.027 0 000 1.452c.238.238.561.317.87.273h14.711c.309.044.632-.035.87-.273l14.972-14.972c.208-.208.303-.482.295-.755a1.017 1.017 0 00-.294-.753zM15.551 29.972H3.455l13.244-13.244c.208-.208.303-.482.295-.755a1.015 1.015 0 00-.295-.754L3.453 1.972h12.101l13.999 13.999-14.002 14.001z" fill="#fff"/></svg>