<svg xmlns="http://www.w3.org/2000/svg" width="25pt" height="19pt" viewBox="0 0 25 19"><path d="M24.793 2.047A3.131 3.131 0 0021.875 0H3.125A3.129 3.129 0 00.187 2.11C.064 2.45 0 2.804 0 3.167v12.664c0 1.29.773 2.45 1.953 2.934.371.156.77.234 1.172.234h18.75c.383.004.762-.074 1.113-.223a3.067 3.067 0 001.621-1.402A3.221 3.221 0 0025 15.831V3.168c0-.383-.07-.766-.207-1.121zM2.082 3.168a1.056 1.056 0 011.043-1.059h18.75c.574.004 1.04.473 1.043 1.059v.2l-8.305 6.335-1.722 1.348-.391.297-.39-.309-1.743-1.316-8.285-6.317zm0 12.664V6.047l6.555 4.992-6.532 4.973a.687.687 0 01-.023-.18zm2.344 1.059l5.949-4.528 1.5 1.149c.371.281.879.281 1.25 0l1.488-1.14 5.907 4.519zm18.492-1.059a.829.829 0 01-.031.223l-6.543-5.016 6.574-5.035zm0 0" fill="#fff"/></svg>